<svg width="78" height="34" viewBox="0 0 78 34" fill="none" xmlns="http://www.w3.org/2000/svg"><g clip-path="url(#clip0_803_3230)"><path d="M0 10.9477H7.66113L4.75143 26H10.8853L13.565 10.9477H21.0611L21.64 8H0.58366L0 10.9477Z" fill="black"/><path d="M23.5761 8L21.1914 21.4717L24.9171 26H41.3113L44.4408 8H38.4422L35.797 23.0044H28.3448L27.1532 21.5463L29.4628 8H23.5761Z" fill="black"/><path d="M43.3301 26H49.2379L50.1947 19.983H65.1454L65.7392 17H50.7565L51.4489 12.4678L53.1983 10.9124H60.8219L60.2281 13.9911H66.2016L67.2578 8H50.9208L45.6733 12.5008L43.3301 26Z" fill="black"/><path d="M77.4479 13.9032H74.2495L73.6252 17.0353H70.7108L71.3351 13.9032H68.1367L68.6852 11.1321H71.8836L72.5095 8H75.4239L74.7995 11.1321H77.9979L77.4479 13.9032Z" fill="#D41F30"/></g><defs><clipPath id="clip0_803_3230"><rect width="77.9979" height="34" fill="white"/></clipPath></defs></svg>